<?xml version="1.0" encoding="utf-8"?>
<!-- Generator: Adobe Illustrator 21.1.0, SVG Export Plug-In . SVG Version: 6.00 Build 0)  -->
<svg version="1.1" id="圖層_1" xmlns="http://www.w3.org/2000/svg" xmlns:xlink="http://www.w3.org/1999/xlink" x="0px" y="0px"
	 viewBox="0 0 1000 500" style="enable-background:new 0 0 1000 500;" xml:space="preserve">
<style type="text/css">
	.st0{fill:#8A8A8D;}
	.st1{fill:url(#SVGID_1_);}
	.st2{fill:url(#SVGID_2_);}
	.st3{fill:url(#SVGID_3_);}
	.st4{fill:url(#SVGID_4_);}
</style>
<g>
	<g>
		<path class="st0" d="M394.8,247.6h-10.4v40.8H368v-40.8h-6.7v-10.9h6.7c0-2.5-0.2-9.6,3.4-16.1c5-9.1,15.2-9.6,18.6-9.6l0.1,0
			c4,0,7.2,3.2,7.2,7.2v6.6c-1.5-0.2-2.8-0.3-4-0.3c-9.9,0-8.8,7.6-8.8,12.3h0.7c5.4,0,9.8,4.4,9.8,9.8V247.6z M418.4,219.7
			c0,4.9-4.4,8.8-9.5,8c-3.3-0.6-6-3.3-6.6-6.5c-0.9-5.2,3.1-9.5,8-9.5C414.7,211.6,418.4,215.2,418.4,219.7z M418.5,288.4h-16.1
			v-51.7h6.4c5.4,0,9.8,4.4,9.8,9.8V288.4z"/>
		<path class="st0" d="M466.9,248h-18.6v11.3c0,8.1,0,9.9,0.4,12.6c0.9,5.2,5.6,5.6,7.3,5.6c4.4,0,7.4-1.3,10.9-3v11.8
			c-2.9,1.1-7.8,3.3-15.1,3.3c-6.5,0-13-2.5-16.8-7.7c-2.5-3.5-3.1-7.3-3.1-15V248h-7.4v-3l21.6-24.4h2.2v16.2h8.9
			c5.4,0,9.8,4.4,9.8,9.8V248z"/>
		<path class="st0" d="M501.4,289.4c-15.8,0-29.2-9.7-29.2-26.6c0-16.1,13.1-27.1,29.4-27.1c11.8,0,28.8,6.6,28.8,27
			C530.3,282.9,513.3,289.4,501.4,289.4z M500.9,245.7c-11.3,0-11.3,12.8-11.3,17.5c0,3.1,0,16.1,11.8,16.1
			c11.5,0,11.5-13.4,11.5-17.6C512.9,258.2,512.9,245.7,500.9,245.7z"/>
		<path class="st0" d="M556.6,241.2c4.1-3.5,9.4-5.5,14.8-5.5c11.8,0,23.9,9.7,23.9,26.2c0,17.8-11.3,27.5-25.3,27.5
			c-4.4,0-9.5-1.2-13.3-3.6v27.3h-16.4v-76.4h11.9C554.6,236.8,556.6,238.8,556.6,241.2L556.6,241.2z M556.6,275.2
			c1.8,1.3,4.6,3.4,9.3,3.4c5,0,12.7-3.1,12.7-15.7c0-3.8-0.6-8.1-2.9-11.2c-1.7-2.5-5.2-4.4-9.1-4.4c-3.5,0-7.8,1.9-10,4.1V275.2z"
			/>
		<path class="st0" d="M621.2,219.7c0,4.6-3.7,8.1-8,8.1c-4.5,0-8.1-3.6-8.1-8.1s3.8-8,8.1-8C617.6,211.7,621.2,215.2,621.2,219.7z
			 M620.6,288.4H605v-51.7h5.8c5.4,0,9.8,4.4,9.8,9.8V288.4z"/>
		<path class="st0" d="M686.7,284.7c-3.8,2.4-10.3,4.7-15.2,4.7c-7.6,0-8.6-3.7-9.2-5.7c-3.8,2.5-9.1,5.7-17,5.7
			c-7.7,0-14.5-5.3-14.5-13.6c0-10.3,10.5-14,14.3-15.4c2.6-0.9,14-4.6,16.4-5.3c0-2.7,0.1-8.7-8.9-8.7c-10.1,0-18.6,6.7-20.2,8.5
			v-7.3c0-4,2.4-7.5,6.1-9.1c5.6-2.3,12.2-2.9,17.5-2.9c2.6,0,15.7,0.1,20.3,8.4c0.8,1.3,1.6,3.1,1.6,9.4V274c0,1.8,0,4.1,2.6,4.1
			c1.7,0,3.4-0.9,6.3-2.5V284.7z M661.5,263.4c-1.1,0.4-6.9,2.7-8.2,3.2c-1.5,0.7-6.1,2.9-6.1,7.5c0,3.6,2.9,5.5,5.2,5.5
			c0.4,0,4.9,0,9.1-3.8V263.4z"/>
		<path class="st0" d="M738.3,244.4c6.3-7.7,12.3-8.6,16.5-8.6c3.9,0,10.4,0.9,15,7.6c2.8,4.1,3.6,8,3.6,13.7v31.4h-16.1v-27.9
			c0-4,0-12.9-8.3-12.9c-4.5,0-8.5,3.7-10.6,7.8v32.9h-16.6V212h6.8c5.4,0,9.8,4.4,9.8,9.8V244.4z"/>
		<path class="st0" d="M836.4,288.4h-16.4V281c-5.6,8-13.1,8.4-16.4,8.4c-10.4,0-15.8-6.5-17.7-11.4c-1.1-3.1-1.1-6.2-1.1-9v-32.3
			h6.6c5.4,0,9.8,4.4,9.8,9.8v17.8c0,6.3,0,13.8,7.8,13.8c2,0,6.6-0.6,11-7.3v-34.1h6.6c5.4,0,9.8,4.4,9.8,9.8V288.4z"/>
		<path class="st0" d="M865.4,239.7c3.4-1.9,6.7-3.9,13.3-3.9c13,0,25.2,9.1,25.2,26.7c0,16-10.1,27-24.1,27
			c-5.3,0-10.2-1.8-14.5-4.9v3.9h-16.2V212h6.5c5.4,0,9.8,4.4,9.8,9.8V239.7z M865.4,274.2c1.8,1.3,5.2,3.8,9.6,3.8
			c4,0,12.7-1.9,12.7-15.6c0-2.2-0.3-7.1-2.5-10.2c-2-3.1-6.2-5.3-10.4-5.3c-3.9,0-7.6,1.9-9.4,3.3V274.2z"/>
		<path class="st0" d="M702.8,288.6l-7.8-7.8c-0.8-0.8-0.8-2,0-2.7l7.8-7.8c0.8-0.8,2-0.8,2.7,0l7.8,7.8c0.8,0.8,0.8,2,0,2.7
			l-7.8,7.8C704.8,289.3,703.6,289.3,702.8,288.6z"/>
	</g>
	<g>
		<linearGradient id="SVGID_1_" gradientUnits="userSpaceOnUse" x1="98.1131" y1="256.118" x2="165.7281" y2="256.118">
			<stop  offset="0" style="stop-color:#E1F6EB"/>
			<stop  offset="0.1046" style="stop-color:#DBF5E8"/>
			<stop  offset="0.2411" style="stop-color:#CBF2DE"/>
			<stop  offset="0.3952" style="stop-color:#B0EECF"/>
			<stop  offset="0.56" style="stop-color:#8BE8B9"/>
			<stop  offset="1" style="stop-color:#7CE5B0"/>
		</linearGradient>
		<path class="st1" d="M97.5,250.1c0-3.8,1.5-7.7,4.4-10.6l16.7-16.7l13.7-13.7l28.8,28.8c6.5,6.5,6.7,16.9,0.6,23.6l-17.4,17.4
			c-0.2,0.2-0.4,0.5-0.6,0.7c-6.1,6.7-5.8,17.1,0.7,23.6l-25.6-25.6l-0.2-0.2l-16.7-16.7C98.9,257.7,97.5,253.9,97.5,250.1z"/>
		<linearGradient id="SVGID_2_" gradientUnits="userSpaceOnUse" x1="129.9757" y1="250.0619" x2="231.3753" y2="250.0619">
			<stop  offset="0" style="stop-color:#E1F6EB"/>
			<stop  offset="0.1045" style="stop-color:#D9F5E6"/>
			<stop  offset="0.2708" style="stop-color:#C1F1D9"/>
			<stop  offset="0.4769" style="stop-color:#9CEBC3"/>
			<stop  offset="0.56" style="stop-color:#8BE8B9"/>
			<stop  offset="1" style="stop-color:#7CE5B0"/>
		</linearGradient>
		<path class="st2" d="M132.2,209.1l28.8,28.8c6.5,6.5,6.7,16.9,0.6,23.6l-17.4,17.4c-0.2,0.2-0.4,0.5-0.6,0.7
			c-5.8,6.5-5.9,16.4,0,22.9l18.9,18.9c5.9,5.9,15.4,5.9,21.2,0l60.7-60.7c5.9-5.9,5.9-15.4,0-21.2l-60.7-60.7
			c-5.9-5.9-15.4-5.9-21.2,0L132.2,209.1z"/>
		<linearGradient id="SVGID_3_" gradientUnits="userSpaceOnUse" x1="197.4801" y1="250.062" x2="296.0403" y2="250.062">
			<stop  offset="0" style="stop-color:#DBD9FC"/>
			<stop  offset="0.1558" style="stop-color:#D4D2FA"/>
			<stop  offset="0.3786" style="stop-color:#C1C0F5"/>
			<stop  offset="0.6406" style="stop-color:#A3A2EE"/>
			<stop  offset="0.69" style="stop-color:#9C9BEC"/>
			<stop  offset="1" style="stop-color:#8B8BE8"/>
		</linearGradient>
		<path class="st3" d="M296.2,209.1l-28.8,28.8c-6.5,6.5-6.7,16.9-0.6,23.6c0.2,0.2,0.4,0.5,0.6,0.7l17.4,17.4
			c6.1,6.7,5.9,17.1-0.6,23.6l-1.5,1.5L266,321.4c-0.5,0.5-1,0.9-1.5,1.3c-0.5,0.4-1.1,0.8-1.6,1.1c-0.6,0.3-1.2,0.7-1.9,0.9
			c-1.4,0.5-2.8,0.9-4.2,1c-1,0.1-1.9,0.1-2.9,0c-1.4-0.1-2.9-0.5-4.2-1c-0.9-0.4-1.8-0.8-2.6-1.4c-0.8-0.5-1.6-1.2-2.4-1.9
			L228,304.7L214.4,291l-0.1-0.1l11.8-11.9c7.6-7.6,4.1-16.8,4.1-16.8c-1.4-4-3.9-6.7-6-8.3l0,0c-2.6-1.9-5-2.5-5-2.5l-9.5-2.4
			c-8.1-2.1-11.1-9.9-11.1-9.9c-2.7-8.1,0.5-13.9,2.3-16.2c0.4-0.5,0.7-0.8,0.9-1l26.4-26.4v0l0,0l16.7-16.7
			c5.9-5.9,15.4-5.9,21.2,0l24.2,24.2L296.2,209.1z"/>
		<linearGradient id="SVGID_4_" gradientUnits="userSpaceOnUse" x1="262.3958" y1="256.1316" x2="330.9879" y2="256.1316">
			<stop  offset="0" style="stop-color:#DBD9FC"/>
			<stop  offset="0.1558" style="stop-color:#D4D2FA"/>
			<stop  offset="0.3786" style="stop-color:#C1C0F5"/>
			<stop  offset="0.6406" style="stop-color:#A3A2EE"/>
			<stop  offset="0.69" style="stop-color:#9C9BEC"/>
			<stop  offset="1" style="stop-color:#8B8BE8"/>
		</linearGradient>
		<path class="st4" d="M331,250.1c0-3.8-1.5-7.7-4.4-10.6l-16.7-16.7l-13.7-13.7l-28.8,28.8c-6.5,6.5-6.7,16.9-0.6,23.6l0,0
			c0.2,0.2,0.4,0.5,0.6,0.7l17.4,17.4c6.1,6.7,5.9,17.1-0.6,23.6l25.6-25.7l0.1-0.1l16.7-16.7C329.5,257.7,331,253.9,331,250.1z"/>
	</g>
</g>
</svg>
