<?xml version="1.0" encoding="utf-8"?>
<!-- Generator: Adobe Illustrator 21.1.0, SVG Export Plug-In . SVG Version: 6.00 Build 0)  -->
<svg version="1.1" id="圖層_1" xmlns="http://www.w3.org/2000/svg" xmlns:xlink="http://www.w3.org/1999/xlink" x="0px" y="0px"
	 viewBox="0 0 1000 1000" style="enable-background:new 0 0 1000 1000;" xml:space="preserve">
<style type="text/css">
	.st0{fill:#8A8A8D;}
	.st1{fill:url(#SVGID_1_);}
	.st2{fill:url(#SVGID_2_);}
	.st3{fill:url(#SVGID_3_);}
	.st4{fill:url(#SVGID_4_);}
	.st5{fill:#2B2B2B;}
	.st6{fill:url(#SVGID_5_);}
	.st7{fill:url(#SVGID_6_);}
	.st8{fill:url(#SVGID_7_);}
	.st9{fill:url(#SVGID_8_);}
</style>
<g>
	<rect x="150.2" y="150.3" class="st5" width="700" height="700"/>
	<g>
		<linearGradient id="SVGID_1_" gradientUnits="userSpaceOnUse" x1="305.7232" y1="500.3618" x2="541.4163" y2="500.3618">
			<stop  offset="0" style="stop-color:#E1F6EB"/>
			<stop  offset="0.1046" style="stop-color:#DBF5E8"/>
			<stop  offset="0.2411" style="stop-color:#CBF2DE"/>
			<stop  offset="0.3952" style="stop-color:#B0EECF"/>
			<stop  offset="0.56" style="stop-color:#8BE8B9"/>
			<stop  offset="1" style="stop-color:#7CE5B0"/>
		</linearGradient>
		<path class="st1" d="M305.7,404.2l68.8,68.7c14.6,16.7,14.3,38.6-0.1,54.5l-40.6,40.7c-0.5,0.5-1,1.1-1.5,1.6
			c-13.8,15.4-14.7,38.8,1,54.5l44.7,44.7c13.9,13.9,36.3,13.9,50.2,0l72.1-72.1l2-1l29.4-29.6l2.7-3.5l37.3-37.3
			c13.8-13.8,13.8-36.3,0-50.1L428.3,331.8c-13.9-13.9-36.3-13.9-50.2,0L305.7,404.2z"/>
		<linearGradient id="SVGID_2_" gradientUnits="userSpaceOnUse" x1="224.2438" y1="514.6746" x2="386.3517" y2="514.6746">
			<stop  offset="0" style="stop-color:#E1F6EB"/>
			<stop  offset="0.1046" style="stop-color:#DBF5E8"/>
			<stop  offset="0.2411" style="stop-color:#CBF2DE"/>
			<stop  offset="0.3952" style="stop-color:#B0EECF"/>
			<stop  offset="0.56" style="stop-color:#8BE8B9"/>
			<stop  offset="1" style="stop-color:#7CE5B0"/>
		</linearGradient>
		<path class="st2" d="M224.2,500.4c0-9.1,3.5-18.2,10.4-25.1l39.4-39.4l32.3-32.3l68.1,68.1c15.3,15.3,15.8,39.8,1.5,55.8
			l-41.1,41.1c-0.5,0.5-1,1.1-1.5,1.6c-14.3,15.9-13.8,40.4,1.5,55.7l-60.4-60.5l-0.5-0.5l-39.4-39.4
			C227.7,518.5,224.2,509.4,224.2,500.4z"/>
		<linearGradient id="SVGID_3_" gradientUnits="userSpaceOnUse" x1="460.6397" y1="500.3621" x2="694.172" y2="500.3621">
			<stop  offset="0" style="stop-color:#DBD9FC"/>
			<stop  offset="0.1558" style="stop-color:#D4D2FA"/>
			<stop  offset="0.3786" style="stop-color:#C1C0F5"/>
			<stop  offset="0.6406" style="stop-color:#A3A2EE"/>
			<stop  offset="0.69" style="stop-color:#9C9BEC"/>
			<stop  offset="1" style="stop-color:#8B8BE8"/>
		</linearGradient>
		<path class="st3" d="M694.6,404.1L627,471.7c-15.3,15.3-16.8,39.9-0.9,56.4c0.5,0.5,0.9,1.1,1.5,1.6l40.5,40.8
			c14.3,15.9,12.8,40.1-2.5,55.4l-3.6,3.6l-39.5,39.5c-1.1,1.1-2.3,2.1-3.5,3c-1.3,1-2.6,1.8-3.9,2.6c-1.4,0.8-2.9,1.6-4.4,2.2
			c-3.2,1.3-6.6,2.1-9.9,2.4c-2.3,0.2-4.5,0.2-6.8,0c-3.4-0.3-6.7-1.1-9.9-2.4c-2.1-0.9-4.2-1.9-6.2-3.2c-2-1.3-3.8-2.8-5.6-4.5
			l-39.5-39.5l-32.3-32.3l-0.3-0.3l27.8-28c18-18.1,9.9-39.6,9.9-39.6c-3.4-9.5-9.1-15.9-14.3-19.7l0,0c-6.3-4.6-11.9-6-11.9-6
			l-22.5-5.6c-19.1-4.9-26.2-23.5-26.2-23.5c-6.5-19.1,1.1-32.8,5.4-38.4c0.9-1.2,1.6-2,2-2.5l62.3-62.3v0l0,0l39.5-39.5
			c13.8-13.8,36.3-13.8,50.1,0l57.3,57.3L694.6,404.1z"/>
		<linearGradient id="SVGID_4_" gradientUnits="userSpaceOnUse" x1="614.059" y1="514.7067" x2="776.1669" y2="514.7067">
			<stop  offset="0" style="stop-color:#DBD9FC"/>
			<stop  offset="0.1558" style="stop-color:#D4D2FA"/>
			<stop  offset="0.3786" style="stop-color:#C1C0F5"/>
			<stop  offset="0.6406" style="stop-color:#A3A2EE"/>
			<stop  offset="0.69" style="stop-color:#9C9BEC"/>
			<stop  offset="1" style="stop-color:#8B8BE8"/>
		</linearGradient>
		<path class="st4" d="M776.2,500.4c0-9.1-3.5-18.2-10.4-25.1l-39.4-39.4L694,403.5l-68.1,68.1c-15.3,15.3-15.8,39.8-1.5,55.8l0,0
			c0.5,0.5,0.9,1.1,1.5,1.6l41.1,41.1c14.3,15.9,13.9,40.4-1.5,55.8l60.6-60.7l0.3-0.3l39.4-39.4
			C772.7,518.5,776.2,509.4,776.2,500.4z"/>
	</g>
</g>
</svg>
