<?xml version="1.0" standalone="no"?>
<!DOCTYPE svg PUBLIC "-//W3C//DTD SVG 20010904//EN"
 "http://www.w3.org/TR/2001/REC-SVG-20010904/DTD/svg10.dtd">
<svg version="1.0" xmlns="http://www.w3.org/2000/svg"
 width="544.000000pt" height="122.000000pt" viewBox="0 0 544.000000 122.000000"
 preserveAspectRatio="xMidYMid meet">

<g transform="translate(0.000000,122.000000) scale(0.100000,-0.100000)"
fill="#000000" stroke="none">
<path d="M400 983 c-52 -7 -69 -14 -101 -40 -41 -35 -69 -96 -69 -155 l0 -48
-35 0 c-35 0 -35 0 -35 -45 0 -45 0 -45 35 -45 l35 0 0 -210 0 -210 60 0 60 0
0 210 0 210 55 0 55 0 0 45 0 45 -55 0 -55 0 0 40 c0 76 42 118 110 108 29 -4
30 -3 30 33 0 49 -29 69 -90 62z"/>
<path d="M3570 951 c-6 -13 -10 -148 -10 -370 l0 -351 65 0 65 0 0 181 0 181
29 29 c23 23 38 29 71 29 96 0 110 -33 110 -255 l0 -165 60 0 60 0 0 178 c0
192 -7 235 -47 282 -66 79 -180 81 -255 5 l-28 -28 0 126 c0 162 -5 177 -64
177 -35 0 -48 -5 -56 -19z"/>
<path d="M4740 951 c-6 -13 -10 -148 -10 -370 l0 -351 49 0 48 0 7 41 7 41 21
-27 c12 -15 40 -36 62 -46 215 -98 406 199 269 417 -36 57 -83 87 -148 92 -65
5 -114 -10 -156 -49 -17 -16 -33 -29 -35 -29 -2 0 -4 62 -4 138 0 94 -4 142
-12 150 -20 20 -86 15 -98 -7z m296 -307 c93 -44 100 -250 10 -309 -35 -23
-102 -22 -135 2 -38 28 -61 80 -61 138 0 142 83 218 186 169z"/>
<path d="M610 930 c-59 -59 38 -142 100 -85 42 38 10 105 -50 105 -17 0 -39
-9 -50 -20z"/>
<path d="M2495 930 c-20 -22 -23 -63 -6 -84 26 -31 90 -27 113 8 14 20 8 63
-10 79 -25 23 -75 21 -97 -3z"/>
<path d="M912 868 c-7 -7 -12 -38 -12 -70 l0 -58 -35 0 c-35 0 -35 0 -35 -45
0 -45 0 -45 35 -45 l35 0 0 -147 c0 -82 5 -165 10 -185 20 -70 98 -108 190
-93 40 7 40 7 40 51 l0 44 -38 0 c-73 0 -77 9 -80 179 l-3 151 60 0 61 0 0 45
0 45 -60 0 -60 0 0 58 c0 32 -5 63 -12 70 -16 16 -80 16 -96 0z"/>
<path d="M1365 727 c-95 -46 -144 -127 -145 -236 0 -83 15 -132 58 -181 114
-134 342 -111 425 43 18 35 22 58 22 138 0 89 -2 99 -30 145 -46 73 -106 106
-203 111 -66 4 -84 1 -127 -20z m179 -88 c81 -64 84 -237 5 -303 -47 -40 -110
-37 -154 7 -69 69 -69 215 1 285 26 26 40 32 77 32 30 0 53 -7 71 -21z"/>
<path d="M2062 733 c-18 -8 -44 -29 -57 -45 -20 -24 -25 -26 -25 -11 0 35 -29
63 -64 63 -64 0 -64 3 -58 -378 l5 -342 58 0 59 0 0 136 0 136 35 -30 c59 -52
156 -55 232 -6 160 104 147 398 -21 478 -43 20 -122 20 -164 -1z m94 -89 c74
-35 103 -171 57 -259 -44 -84 -147 -96 -208 -24 -23 28 -25 39 -25 117 0 101
19 144 73 167 42 19 62 18 103 -1z"/>
<path d="M2855 743 c-71 -15 -88 -34 -79 -81 l6 -28 56 19 c74 25 138 18 170
-18 12 -15 22 -36 22 -49 0 -21 -5 -24 -62 -28 -134 -11 -215 -61 -237 -145
-43 -160 160 -259 286 -141 l23 21 6 -31 c6 -31 8 -32 58 -32 l51 0 -3 178
c-1 97 -7 193 -12 213 -23 85 -93 129 -200 128 -36 -1 -74 -3 -85 -6z m175
-319 c0 -48 -4 -59 -29 -85 -24 -23 -38 -29 -74 -29 -55 0 -81 25 -80 76 2 60
49 93 136 94 l47 0 0 -56z"/>
<path d="M616 724 c-14 -13 -16 -51 -16 -255 l0 -239 60 0 60 0 0 243 c0 176
-3 246 -12 255 -17 17 -74 15 -92 -4z"/>
<path d="M2497 722 c-15 -16 -17 -49 -17 -255 l0 -237 65 0 65 0 0 233 c0 194
-3 236 -16 255 -19 28 -74 30 -97 4z"/>
<path d="M4168 729 c-16 -9 -18 -28 -18 -177 0 -92 5 -184 10 -204 22 -76 89
-128 167 -128 49 1 114 30 140 64 28 35 33 33 33 -14 l0 -40 55 0 54 0 -6 243
c-3 134 -10 248 -16 255 -14 18 -71 15 -90 -6 -14 -16 -17 -44 -17 -176 l0
-158 -34 -34 c-27 -27 -42 -34 -72 -34 -84 1 -104 48 -104 244 0 118 -3 147
-16 160 -17 18 -60 20 -86 5z"/>
<path d="M3319 370 c-29 -17 -43 -66 -29 -100 29 -69 113 -67 139 3 26 67 -49
133 -110 97z"/>
</g>
</svg>
